<svg width="56" height="57" viewBox="0 0 56 57" fill="none" xmlns="http://www.w3.org/2000/svg">
<g id="Duotone/Stack">
<g id="Group 39790">
<path id="Vector" d="M25.7141 21.4383C38.9686 21.4383 49.7135 17.0731 49.7135 11.6884C49.7135 6.30367 38.9686 1.93848 25.7141 1.93848C12.4595 1.93848 1.71463 6.30367 1.71463 11.6884C1.71463 17.0731 12.4595 21.4383 25.7141 21.4383Z" stroke="#E862FE" stroke-width="2.3"/>
<path id="Vector_2" d="M1.71524 31.1885C1.71524 31.1885 1.71524 38.8037 1.71524 44.1884C1.71524 49.5732 12.4602 53.9384 25.7143 53.9384C38.9687 53.9384 49.7146 49.5732 49.7146 44.1884C49.7146 41.5007 49.7146 31.1885 49.7146 31.1885" stroke="#E862FE" stroke-width="2.3" stroke-linecap="square"/>
<path id="Vector_3" d="M1.71524 11.6885C1.71524 11.6885 1.71524 22.5537 1.71524 27.9383C1.71524 33.3231 12.4602 37.6884 25.7143 37.6884C38.9687 37.6884 49.7146 33.3231 49.7146 27.9383C49.7146 25.2506 49.7146 11.6885 49.7146 11.6885" stroke="#E862FE" stroke-width="2.3"/>
</g>
</g>
</svg>
