<svg width="21" height="21" viewBox="0 0 21 21" fill="none" xmlns="http://www.w3.org/2000/svg">
<path id="Vector" d="M13.22 6.92428L8.93 11.2243L7.28 9.57428C7.19036 9.46958 7.08004 9.38458 6.95597 9.32458C6.83191 9.26458 6.69678 9.23078 6.55906 9.22548C6.42134 9.22018 6.28401 9.24338 6.15568 9.29368C6.02736 9.34388 5.91081 9.42018 5.81335 9.51758C5.7159 9.61508 5.63964 9.73168 5.58937 9.85998C5.53909 9.98828 5.51589 10.1256 5.52121 10.2634C5.52653 10.4011 5.56026 10.5362 5.62028 10.6603C5.6803 10.7843 5.76532 10.8947 5.87 10.9843L8.22 13.3443C8.31344 13.437 8.42426 13.5103 8.5461 13.5601C8.6679 13.6098 8.7984 13.6351 8.93 13.6343C9.1923 13.6332 9.4437 13.529 9.63 13.3443L14.63 8.34428C14.7237 8.25128 14.7981 8.14068 14.8489 8.01886C14.8997 7.897 14.9258 7.76629 14.9258 7.63428C14.9258 7.50227 14.8997 7.37156 14.8489 7.2497C14.7981 7.12784 14.7237 7.01724 14.63 6.92428C14.4426 6.73803 14.1892 6.63349 13.925 6.63349C13.6608 6.63349 13.4074 6.73803 13.22 6.92428ZM10.5 0.134277C8.5222 0.134277 6.58879 0.720767 4.9443 1.81958C3.29981 2.9184 2.01809 4.48018 1.26121 6.30745C0.504331 8.13468 0.306301 10.1454 0.692151 12.0852C1.078 14.025 2.03041 15.8068 3.42894 17.2054C4.82746 18.6039 6.60929 19.5563 8.5491 19.9422C10.4889 20.328 12.4996 20.13 14.3268 19.3731C16.1541 18.6162 17.7159 17.3345 18.8147 15.69C19.9135 14.0455 20.5 12.1121 20.5 10.1343C20.5 8.82108 20.2413 7.5207 19.7388 6.30745C19.2363 5.09419 18.4997 3.9918 17.5711 3.06321C16.6425 2.13463 15.5401 1.39803 14.3268 0.895477C13.1136 0.392937 11.8132 0.134277 10.5 0.134277ZM10.5 18.1343C8.9178 18.1343 7.37104 17.6651 6.05544 16.7861C4.73985 15.907 3.71447 14.6576 3.10897 13.1958C2.50347 11.734 2.34504 10.1254 2.65372 8.57358C2.9624 7.02171 3.72433 5.59625 4.84315 4.47743C5.96197 3.35861 7.38743 2.59668 8.9393 2.288C10.4911 1.97932 12.0997 2.13774 13.5615 2.74324C15.0233 3.34875 16.2727 4.37412 17.1518 5.68972C18.0308 7.00531 18.5 8.55198 18.5 10.1343C18.5 12.256 17.6572 14.2909 16.1569 15.7912C14.6566 17.2914 12.6217 18.1343 10.5 18.1343Z" fill="#EDF1FF"/>
</svg>
